<?xml version="1.0" encoding="utf-8"?>
<!-- Generator: Adobe Illustrator 23.0.5, SVG Export Plug-In . SVG Version: 6.00 Build 0)  -->
<svg version="1.1" id="Layer_1" xmlns="http://www.w3.org/2000/svg" xmlns:xlink="http://www.w3.org/1999/xlink" x="0px" y="0px"
	 viewBox="0 0 48 48" style="enable-background:new 0 0 48 48;" xml:space="preserve">
<style type="text/css">
	.st0{fill:#FFFFFF;}
</style>
<path class="st0" d="M24,44c-1.1,0-2.1-0.4-2.9-1.2S20,41.1,20,40H28c0,1.1-0.4,2.1-1.2,2.9S25.1,44,24,44z M15.9,36.8v-3h16.2v3
	H15.9z M16.1,30.8c-2.2-1.4-3.9-3.2-5.2-5.4S9,20.9,9,18.1c0-4.1,1.5-7.6,4.4-10.5S19.9,3.2,24,3.2c4.1,0,7.6,1.5,10.5,4.4
	S39,14.1,39,18.1c0,2.7-0.6,5.1-1.9,7.3s-3,3.9-5.2,5.4H16.1z M17.3,27.8h13.5c1.6-1.1,2.9-2.4,3.8-4.1c0.9-1.7,1.4-3.5,1.4-5.5
	c0-3.3-1.2-6.1-3.5-8.5c-2.3-2.3-5.2-3.5-8.5-3.5s-6.1,1.2-8.5,3.5S12,14.8,12,18.1c0,2,0.5,3.8,1.4,5.5
	C14.3,25.4,15.6,26.7,17.3,27.8z M24,27.8C24,27.8,24,27.8,24,27.8C24,27.8,24,27.8,24,27.8C24,27.8,24,27.8,24,27.8
	C24,27.8,24,27.8,24,27.8C24,27.8,24,27.8,24,27.8C24,27.8,24,27.8,24,27.8C24,27.8,24,27.8,24,27.8C24,27.8,24,27.8,24,27.8z"/>
</svg>
