<?xml version="1.0" encoding="utf-8"?>
<!-- Generator: Adobe Illustrator 23.0.5, SVG Export Plug-In . SVG Version: 6.00 Build 0)  -->
<svg version="1.1" id="Layer_1" xmlns="http://www.w3.org/2000/svg" xmlns:xlink="http://www.w3.org/1999/xlink" x="0px" y="0px"
	 viewBox="0 0 48 48" style="enable-background:new 0 0 48 48;" xml:space="preserve">
<style type="text/css">
	.st0{fill:#FFFFFF;}
</style>
<path class="st0" d="M4,40v-4.5h4.3V11c0-0.8,0.3-1.5,0.9-2.1C9.8,8.3,10.5,8,11.3,8h31v3h-31l0,0l0,0v24.5H23V40H4z M28,40
	c-0.5,0-1-0.2-1.4-0.6C26.2,39,26,38.5,26,37.8V15.9c0-0.5,0.2-1,0.6-1.4C27,14.2,27.4,14,28,14h13.6c0.7,0,1.2,0.2,1.7,0.6
	c0.5,0.4,0.7,0.8,0.7,1.4v21.8c0,0.7-0.2,1.2-0.7,1.6c-0.5,0.4-1.1,0.6-1.7,0.6H28z M29,35.5h12V17H29V35.5z"/>
</svg>
