<?xml version="1.0" encoding="utf-8"?>
<!-- Generator: Adobe Illustrator 23.0.5, SVG Export Plug-In . SVG Version: 6.00 Build 0)  -->
<svg version="1.1" id="Layer_1" xmlns="http://www.w3.org/2000/svg" xmlns:xlink="http://www.w3.org/1999/xlink" x="0px" y="0px"
	 viewBox="0 0 48 48" style="enable-background:new 0 0 48 48;" xml:space="preserve">
<style type="text/css">
	.st0{fill:#FFFFFF;}
</style>
<path class="st0" d="M24,33.1c3.5-2.8,6.1-5.5,7.9-8.1c1.8-2.6,2.6-5,2.6-7.2c0-2-0.4-3.6-1.1-5s-1.6-2.5-2.6-3.4S28.6,8,27.4,7.6
	C26.1,7.2,25,7,24,7s-2.1,0.2-3.4,0.6c-1.2,0.4-2.4,1-3.4,1.9s-1.9,2-2.7,3.4c-0.7,1.4-1.1,3-1.1,5c0,2.2,0.9,4.6,2.6,7.2
	S20.5,30.3,24,33.1z M24,36.9c-4.6-3.4-8-6.7-10.2-9.9s-3.3-6.2-3.3-9.3c0-2.3,0.4-4.3,1.2-6c0.8-1.7,1.9-3.2,3.2-4.3s2.8-2,4.4-2.6
	S22.4,4,24,4s3.1,0.3,4.8,0.9s3,1.5,4.3,2.6c1.3,1.2,2.4,2.6,3.2,4.3c0.8,1.7,1.2,3.7,1.2,6c0,3-1.1,6.1-3.3,9.3S28.6,33.5,24,36.9z
	 M24,21c1,0,1.8-0.3,2.5-1c0.7-0.7,1-1.5,1-2.5s-0.3-1.8-1-2.5c-0.7-0.7-1.5-1-2.5-1s-1.8,0.3-2.5,1c-0.7,0.7-1,1.5-1,2.5
	s0.3,1.8,1,2.5C22.2,20.7,23,21,24,21z M10.5,44v-3h27v3H10.5z M24,17.8L24,17.8L24,17.8L24,17.8L24,17.8L24,17.8L24,17.8L24,17.8
	L24,17.8L24,17.8L24,17.8L24,17.8L24,17.8z"/>
</svg>
