<?xml version="1.0" encoding="utf-8"?>
<!-- Generator: Adobe Illustrator 23.0.5, SVG Export Plug-In . SVG Version: 6.00 Build 0)  -->
<svg version="1.1" id="Layer_1" xmlns="http://www.w3.org/2000/svg" xmlns:xlink="http://www.w3.org/1999/xlink" x="0px" y="0px"
	 viewBox="0 0 48 48" style="enable-background:new 0 0 48 48;" xml:space="preserve">
<style type="text/css">
	.st0{fill:#FFFFFF;}
</style>
<path class="st0" d="M9.4,20.5l5.3,2.3c0.6-1.2,1.2-2.4,1.9-3.6c0.7-1.2,1.4-2.3,2.2-3.3L14.8,15l0,0l0,0L9.4,20.5z M17,24.5
	l6.7,6.6c1.9-0.9,3.7-1.8,5.3-2.9c1.7-1.1,3-2.2,4-3.2c2.7-2.7,4.7-5.5,6-8.3c1.3-2.8,2-6,2-9.6c-3.6,0.1-6.8,0.8-9.6,2
	s-5.6,3.3-8.3,6c-1,1-2.1,2.4-3.2,4C18.9,20.8,17.9,22.6,17,24.5z M28.5,19.7c-0.7-0.7-1-1.5-1-2.5s0.3-1.8,1-2.5s1.5-1,2.5-1
	s1.8,0.3,2.5,1c0.7,0.7,1,1.5,1,2.5s-0.3,1.8-1,2.5c-0.7,0.7-1.5,1-2.5,1S29.2,20.4,28.5,19.7z M27.8,38.8l5.5-5.4l0,0l0,0l-0.8-4
	c-1.1,0.8-2.2,1.5-3.4,2.2c-1.2,0.7-2.4,1.3-3.5,1.9L27.8,38.8z M44,4.2c0.3,4.5-0.3,8.7-1.7,12.4c-1.4,3.7-3.8,7.3-7.1,10.6
	c0,0-0.1,0.1-0.1,0.1c0,0-0.1,0.1-0.1,0.1l1.1,5.5c0.1,0.5,0.1,1-0.1,1.5s-0.4,0.9-0.8,1.3l-8.5,8.6l-4.3-9.9L14,25.7l-9.9-4.3
	l8.6-8.6c0.4-0.4,0.8-0.6,1.3-0.8c0.5-0.2,0.9-0.2,1.4-0.1l5.5,1.1c0,0,0.1-0.1,0.1-0.1c0,0,0.1,0,0.1-0.1c3.3-3.3,6.8-5.7,10.5-7.1
	S39.5,3.9,44,4.2z M7.4,31.8C8.6,30.6,10,30,11.7,30s3.1,0.6,4.3,1.7c1.2,1.2,1.7,2.6,1.7,4.3c0,1.7-0.6,3.1-1.8,4.3
	c-0.9,0.9-2.2,1.6-4,2.2C10.1,43,7.4,43.5,3.8,44c0.5-3.6,1-6.4,1.6-8.2C5.9,34,6.6,32.6,7.4,31.8z M9.6,33.9
	c-0.5,0.5-0.9,1.3-1.3,2.3c-0.4,1.1-0.7,2.4-1,4.1c1.7-0.3,3-0.6,4.1-0.9c1.1-0.4,1.9-0.8,2.4-1.3c0.6-0.6,1-1.3,1-2.1
	c0-0.9-0.3-1.6-0.9-2.2c-0.6-0.6-1.4-0.9-2.2-0.9C10.8,32.9,10.1,33.3,9.6,33.9z"/>
</svg>
