<?xml version="1.0" encoding="utf-8"?>
<!-- Generator: Adobe Illustrator 23.0.5, SVG Export Plug-In . SVG Version: 6.00 Build 0)  -->
<svg version="1.1" id="Layer_1" xmlns="http://www.w3.org/2000/svg" xmlns:xlink="http://www.w3.org/1999/xlink" x="0px" y="0px"
	 viewBox="0 0 48 48" style="enable-background:new 0 0 48 48;" xml:space="preserve">
<style type="text/css">
	.st0{fill:#FFFFFF;}
</style>
<path class="st0" d="M20.4,31.8c0.8,0.8,1.9,1.1,3.3,1.1c1.5-0.1,2.5-0.6,3.2-1.6l10.8-17l-16.8,11c-1,0.7-1.5,1.7-1.6,3.2
	C19.2,29.9,19.6,31,20.4,31.8z M9.6,40c-0.6,0-1.1-0.1-1.7-0.4c-0.6-0.3-1-0.7-1.2-1.2c-0.9-1.6-1.5-3.2-2-4.9
	C4.2,31.8,4,30.1,4,28.2c0-2.8,0.5-5.4,1.6-7.8s2.5-4.6,4.3-6.4s3.9-3.3,6.3-4.3s5-1.6,7.7-1.6c1.9,0,3.9,0.3,6,0.9
	c2.1,0.6,4,1.7,5.9,3.2L33.2,14c-1.5-1-3.1-1.7-4.8-2.2c-1.7-0.5-3.2-0.7-4.5-0.7c-4.7,0-8.6,1.7-11.9,5S7,23.4,7,28.2
	c0,1.5,0.2,3,0.6,4.5c0.4,1.5,1,3,1.8,4.3h28.9c0.7-1.2,1.3-2.6,1.8-4.2c0.4-1.6,0.7-3.2,0.7-4.7c0-1.4-0.2-2.9-0.6-4.5
	c-0.4-1.6-1.2-3.1-2.2-4.5l1.9-2.6c1.3,1.9,2.2,3.7,2.9,5.6c0.6,1.9,1,3.8,1,5.7c0.1,2-0.1,3.9-0.6,5.7c-0.5,1.8-1.2,3.4-2.1,4.9
	c-0.4,0.8-0.8,1.2-1.3,1.4c-0.5,0.2-1,0.3-1.7,0.3H9.6z M23.5,24.6C23.5,24.6,23.5,24.6,23.5,24.6C23.5,24.6,23.5,24.6,23.5,24.6
	C23.5,24.6,23.5,24.6,23.5,24.6C23.5,24.6,23.5,24.6,23.5,24.6C23.5,24.6,23.5,24.6,23.5,24.6C23.5,24.6,23.5,24.6,23.5,24.6
	C23.5,24.6,23.5,24.6,23.5,24.6C23.5,24.6,23.5,24.6,23.5,24.6C23.5,24.6,23.5,24.6,23.5,24.6C23.5,24.6,23.5,24.6,23.5,24.6z"/>
</svg>
